<svg width="34" height="34" viewBox="0 0 34 34" fill="none" xmlns="http://www.w3.org/2000/svg">
<path d="M16.915 17.0284V15.2434H17.7792H18.6434V13.6029C18.6434 12.1324 18.6377 11.9624 18.598 11.9454C18.5725 11.9369 18.1844 11.9284 17.7339 11.9284H16.915L16.9207 10.9849L16.9292 10.0442L17.9265 10.0357L18.9267 10.03V10.1264C18.9267 10.1972 18.9125 10.2255 18.87 10.2369C18.8162 10.251 18.8134 10.2765 18.8134 10.9877C18.8134 11.6337 18.819 11.7272 18.8587 11.7414C18.8842 11.7499 19.2724 11.7584 19.7229 11.7584H20.5417V14.4217V17.085L19.686 17.0907L18.8275 17.0992L18.819 17.9577L18.8134 18.8134H17.8642H16.915V17.0284Z" fill="#762018"/>
<path d="M10.0265 32.6401C10.0123 32.6288 9.99817 32.2406 9.99534 31.776L9.98684 30.926H9.36351C9.02067 30.926 8.64384 30.9146 8.52484 30.9005L8.30951 30.8778L8.29251 29.9683C8.28401 29.4696 8.28401 29.0475 8.29251 29.0361C8.30101 29.022 8.69201 29.0135 9.15951 29.0163L10.0152 29.022V28.1606V27.2993L11.8512 27.2908L13.6843 27.2851V29.0276V30.7701H15.2993H16.9143V29.0446V27.322L17.022 27.3021C17.0787 27.2936 17.5065 27.2851 17.9712 27.2851H18.8127V29.0276V30.7701H21.3343H23.856V29.991V29.2118H22.9918H22.1277V28.2513C22.1277 27.3616 22.1305 27.2908 22.1787 27.2823C22.2042 27.2766 23.0003 27.2738 23.9467 27.2795C25.5305 27.288 25.6665 27.2908 25.6863 27.3361C25.6977 27.3616 25.7147 27.7441 25.7232 28.1833C25.7345 28.6225 25.7515 28.9908 25.7628 29.005C25.777 29.0163 26.1595 29.0276 26.6128 29.0305L27.4402 29.0333V29.9655V30.8976L26.5987 30.9061L25.7543 30.9118L25.7515 31.0761C25.7515 31.164 25.7515 31.5323 25.7543 31.8893C25.7572 32.3823 25.7487 32.5523 25.7203 32.5891C25.6863 32.6373 25.2613 32.6401 17.8692 32.6458C13.5682 32.6515 10.0407 32.6486 10.0265 32.6401Z" fill="#3F721C"/>
<path d="M22.1279 24.7918V24.2534H22.2271H22.3263V24.7918V25.3301H22.2271H22.1279V24.7918Z" fill="#3F721C"/>
<path d="M22.128 22.3549C22.128 21.1649 22.1195 20.5416 22.0996 20.5416C22.0855 20.5416 22.0713 20.4963 22.0713 20.4424C22.0713 20.3461 22.0741 20.3433 22.1818 20.3433C22.2555 20.3433 22.298 20.3574 22.3093 20.3886C22.3178 20.4141 22.3263 21.2726 22.3263 22.3011V24.1683H22.2271H22.128V22.3549Z" fill="#3F721C"/>
<path d="M20.3994 20.4424C20.3994 20.3433 20.3994 20.3433 20.5269 20.3433C20.6544 20.3433 20.6544 20.3433 20.6544 20.4424C20.6544 20.5416 20.6544 20.5416 20.5269 20.5416C20.3994 20.5416 20.3994 20.5416 20.3994 20.4424Z" fill="#3F721C"/>
<path d="M20.6826 20.4424V20.3433H21.3485H22.0143V20.4424V20.5416H21.3485H20.6826V20.4424Z" fill="#3F721C"/>
<path d="M20.3711 18.6575C20.3711 18.5612 20.3739 18.5583 20.4844 18.5583C20.5949 18.5583 20.5978 18.5612 20.5978 18.6575C20.5978 18.7538 20.5949 18.7567 20.4844 18.7567C20.3739 18.7567 20.3711 18.7538 20.3711 18.6575Z" fill="#3F721C"/>
<path d="M22.1279 4.07994V3.31494H22.2271H22.3263V4.07994V4.84494H22.2271H22.1279V4.07994Z" fill="#3F721C"/>
<path d="M15.1855 2.30923V1.44507H15.2847H15.3839V2.30923V3.1734H15.2847H15.1855V2.30923Z" fill="#3F721C"/>
<path d="M0.5 17V10C0.5 4.75329 4.7533 0.5 10 0.5H17H24C29.2467 0.5 33.5 4.7533 33.5 10V17V24C33.5 29.2467 29.2467 33.5 24 33.5H17H10C4.75329 33.5 0.5 29.2467 0.5 24V17Z" fill="#4C8E1F" stroke="white"/>
<path d="M16.915 24.8059V22.1284H17.8642H18.8134V24.7918C18.8134 27.1406 18.8077 27.4551 18.7709 27.4551C18.7482 27.4551 18.7284 27.4353 18.7284 27.4126C18.7284 27.3758 18.6264 27.3701 17.9719 27.3701C17.1587 27.3701 17 27.3843 17 27.4438C17 27.4664 16.9802 27.4834 16.9575 27.4834C16.9207 27.4834 16.915 27.1661 16.915 24.8059Z" fill="#4C8E1F"/>
<path d="M13.5995 25.7154V22.219L13.4946 22.1992C13.438 22.1879 13.0441 22.185 12.6248 22.1907L11.857 22.1992L11.8485 19.601C11.8428 17.3145 11.8371 17 11.8003 17C11.7776 17 11.7578 16.9802 11.7578 16.9575C11.7578 16.9207 12.0666 16.915 14.3786 16.915H16.9995V17.8217C16.9995 18.6094 17.0051 18.7284 17.042 18.7284C17.0646 18.7284 17.0845 18.7482 17.0845 18.7709C17.0845 18.8077 16.8776 18.8134 15.3845 18.8134H13.6845V20.4737V22.1369L14.4155 22.1284C14.815 22.1227 15.2031 22.1199 15.2796 22.1227L15.4128 22.1284V23.8567V25.585H16.2061H16.9995V27.3984V29.2117H15.2995H13.5995V25.7154Z" fill="#DF5B00"/>
<path d="M18.7275 27.3983V25.585H20.4672H22.2069L22.204 26.231C22.2012 26.5851 22.2012 27.3813 22.2069 28.0018C22.2125 28.9793 22.2182 29.1266 22.255 29.1266C22.2777 29.1266 22.2975 29.1465 22.2975 29.1691C22.2975 29.206 22.0794 29.2116 20.5125 29.2116H18.7275V27.3983Z" fill="#DF5B00"/>
<path d="M18.6426 18.7709C18.6426 18.7482 18.6624 18.7284 18.6851 18.7284C18.7219 18.7284 18.7276 18.6065 18.7332 17.8727L18.7417 17.0142L19.6002 17.0057L20.4559 17V16.1019V15.2065L20.5862 15.2264C20.6599 15.2349 21.0736 15.2434 21.5071 15.2434C22.1899 15.2434 22.2976 15.249 22.2976 15.2859C22.2976 15.3085 22.2806 15.3284 22.2579 15.3284C22.1956 15.3284 22.1814 15.4785 22.1842 16.2492L22.1871 16.9859L21.3229 16.9944L20.4559 17V17.9067V18.8134H19.5492C18.7616 18.8134 18.6426 18.8077 18.6426 18.7709Z" fill="#DF5B00"/>
<path d="M11.7778 13.665C11.7664 13.6565 11.7579 12.8717 11.7579 11.9225V10.1998H10.8938C10.0749 10.1998 9.9531 10.1885 10.0721 10.1233C10.1061 10.1035 10.1146 9.96468 10.1203 9.25068L10.1288 8.40068L11.8656 8.39218C13.3814 8.38651 13.5996 8.38085 13.5996 8.34401C13.5996 8.30718 13.7214 8.30151 14.5063 8.30151H15.4129V9.16568V10.0298H16.2318C16.8126 10.0298 17.0591 10.0383 17.0733 10.061C17.0846 10.0808 17.0704 10.1063 17.0449 10.1205C17.0053 10.1432 16.9996 10.2367 16.9996 10.9932C16.9996 11.7298 17.0053 11.8432 17.0421 11.8432C17.0648 11.8432 17.0846 11.863 17.0846 11.8857C17.0846 11.9225 16.9826 11.9282 16.3366 11.9282C15.9258 11.9282 15.5489 11.9367 15.5008 11.9452L15.4129 11.965V12.7895C15.4129 13.3958 15.4044 13.6253 15.3789 13.6508C15.3534 13.6763 14.9114 13.6848 13.5713 13.6848C12.5938 13.6848 11.7863 13.6763 11.7778 13.665Z" fill="#DF5B00"/>
<path d="M20.4563 11.9284V11.8405L19.6346 11.8434C19.1841 11.8462 18.7931 11.8349 18.7705 11.8207C18.7308 11.8009 18.7251 11.6932 18.7336 10.9565C18.7421 10.1774 18.7393 10.115 18.694 10.115C18.6628 10.115 18.6515 10.1009 18.66 10.0725C18.6741 10.0357 18.8073 10.03 19.6091 10.03H20.5413V10.8489C20.5413 11.2965 20.5498 11.7442 20.5583 11.8405C20.5781 12.0049 20.5753 12.0134 20.5158 12.0134C20.4676 12.0134 20.4563 11.9964 20.4563 11.9284Z" fill="#DF5B00"/>
<path d="M18.6801 11.9085C18.6291 11.8886 18.6347 11.8518 18.6857 11.8518C18.7084 11.8518 18.7282 11.8688 18.7282 11.8915C18.7282 11.9113 18.7254 11.9283 18.7226 11.9255C18.7169 11.9255 18.6971 11.917 18.6801 11.9085Z" fill="#DF5B00"/>
<path d="M15.2432 4.09411C15.2432 3.31778 15.2488 3.17328 15.2828 3.17328C15.3055 3.17328 15.3282 3.16194 15.3338 3.14778C15.3395 3.13361 15.7333 3.11661 16.215 3.11094L17.0848 3.09961V4.05728V5.01494H16.164H15.2432V4.09411Z" fill="#DF5B00"/>
<path d="M10.1349 16.9801C10.1236 16.9716 10.1151 16.5948 10.1151 16.1443V15.3283H9.25089H8.38672V13.5603V11.7951L8.47455 11.7753C8.52272 11.7668 9.30189 11.7583 10.2029 11.7583H11.8434V11.8801C11.8434 11.9453 11.8462 12.3561 11.8519 12.7925L11.8576 13.5858L13.5547 13.5943C14.7844 13.5971 15.2632 13.5915 15.2887 13.5688C15.3199 13.5433 15.3284 13.3733 15.3284 12.7075V11.8801L15.4191 11.8603C15.4701 11.8518 16.2351 11.8433 17.1191 11.8433L18.7284 11.8461V13.5858V15.3283H17.8642H17.0001V16.1641V17H13.5774C11.6932 17 10.1434 16.9915 10.1349 16.9801Z" fill="#D9A066"/>
<path d="M20.5052 15.3085C20.4599 15.2971 20.457 15.1951 20.457 13.5263L20.4599 11.7583H22.1514C23.1685 11.7583 23.8599 11.7696 23.8854 11.7866C23.9222 11.8093 23.9279 12.0445 23.9364 13.5716L23.9449 15.3283L22.2505 15.3255C21.3184 15.3226 20.5335 15.317 20.5052 15.3085Z" fill="#D9A066"/>
<path d="M16.935 10.1235C16.8953 10.1121 16.8868 10.0923 16.8982 10.0498C16.9067 10.0158 16.9152 9.6078 16.9152 9.14597V8.30164H17.7793H18.6435V7.52247V6.7433H17.7793H16.9152V5.83664C16.9152 5.04897 16.9208 4.92997 16.9577 4.92997C16.9803 4.92997 17.0002 4.91014 17.0002 4.88747C17.0002 4.85064 17.2183 4.84497 18.7852 4.84497C20.2868 4.84497 20.5702 4.85064 20.5702 4.88464C20.5702 4.90447 20.5447 4.92997 20.5135 4.93847C20.4568 4.95264 20.4568 4.97814 20.4568 6.66964C20.4568 8.17697 20.4625 8.38664 20.4993 8.38664C20.522 8.38664 20.5418 8.40647 20.5418 8.42914C20.5418 8.46597 20.4257 8.47164 19.6777 8.47164H18.8135V9.2933V10.115H17.938C17.4563 10.115 17.0455 10.1206 17.0228 10.1263C17.003 10.132 16.9633 10.1291 16.935 10.1235Z" fill="#D9A066"/>
<path d="M20.4567 10.1857V10.1149H19.5925H18.7284V9.25074V8.38658H17.8642C17.1162 8.38658 17 8.39224 17 8.42908C17 8.45174 16.9802 8.47158 16.9575 8.47158C16.9207 8.47158 16.915 8.34691 16.915 7.52241C16.915 6.69791 16.9207 6.57324 16.9575 6.57324C16.9802 6.57324 17 6.59308 17 6.61574C17 6.65258 17.1162 6.65824 17.8642 6.65824H18.7284V7.52241V8.38658H20.4737H22.219L22.2134 9.16008C22.2049 10.1234 22.202 10.1149 22.2559 10.1149C22.2785 10.1149 22.2984 10.1347 22.2984 10.1574C22.2984 10.1942 22.1822 10.1999 21.4342 10.1999C20.876 10.1999 20.57 10.2112 20.57 10.2282C20.57 10.2452 20.5445 10.2566 20.5134 10.2566C20.4709 10.2566 20.4567 10.2367 20.4567 10.1857Z" fill="#CBDBFC"/>
<path d="M23.7432 29.3675C23.7432 29.274 23.7488 29.2683 23.8423 29.2683C23.9358 29.2683 23.9415 29.274 23.9415 29.3675C23.9415 29.461 23.9358 29.4666 23.8423 29.4666C23.7488 29.4666 23.7432 29.461 23.7432 29.3675Z" fill="#FAFDF4"/>
<path d="M16.7903 29.2627C16.7591 29.1409 16.7704 29.1267 16.8866 29.1267C16.9971 29.1267 16.9999 29.1295 16.9999 29.2259C16.9999 29.3194 16.9943 29.325 16.9036 29.325C16.8299 29.325 16.8044 29.3109 16.7903 29.2627Z" fill="#FAFDF4"/>
<path d="M18.7285 25.585C18.7285 25.4915 18.7653 25.4801 18.8843 25.534C18.924 25.551 18.9552 25.5878 18.9552 25.619C18.9552 25.6586 18.9325 25.67 18.8418 25.67C18.7342 25.67 18.7285 25.6643 18.7285 25.585Z" fill="#FAFDF4"/>
<path d="M18.7286 22.2843C18.7286 22.2219 18.7173 22.2134 18.6153 22.2134C18.5218 22.2134 18.502 22.2049 18.502 22.1568C18.502 22.1199 18.5218 22.1001 18.553 22.1001C18.5813 22.1001 18.6181 22.0859 18.6351 22.0689C18.6521 22.0519 18.7088 22.0434 18.7598 22.0491C18.842 22.0576 18.8561 22.0689 18.8646 22.1398C18.8788 22.2673 18.8476 22.3551 18.7853 22.3551C18.7428 22.3551 18.7286 22.3353 18.7286 22.2843Z" fill="#FAFDF4"/>
<path d="M22.1004 20.7826C22.1004 20.743 22.089 20.7118 22.072 20.7118C22.0579 20.7118 22.0437 20.6806 22.0437 20.641C22.0437 20.573 22.038 20.5701 21.8482 20.5701C21.7009 20.5701 21.6499 20.5815 21.6357 20.6126C21.6244 20.6438 21.5762 20.6551 21.4459 20.6551C21.3495 20.6551 21.1852 20.6693 21.086 20.6863C20.9415 20.7118 20.848 20.7118 20.6639 20.6835L20.4287 20.6466V20.5446V20.4426L21.3212 20.4511L22.2137 20.4596V20.6551C22.2137 20.8336 22.208 20.8535 22.157 20.8535C22.1145 20.8535 22.1004 20.8336 22.1004 20.7826Z" fill="#FAFDF4"/>
<path d="M18.6606 18.8673C18.6521 18.8192 18.6436 18.7682 18.6436 18.754C18.6436 18.7398 18.7144 18.7285 18.7994 18.7285C18.9666 18.7285 18.9807 18.7455 18.9269 18.8815C18.9042 18.9438 18.8816 18.9552 18.7881 18.9552C18.6889 18.9552 18.6776 18.9467 18.6606 18.8673Z" fill="#FAFDF4"/>
<path d="M20.2861 18.8418C20.2861 18.7342 20.2918 18.7285 20.3711 18.7285C20.4505 18.7285 20.4561 18.7342 20.4561 18.8418C20.4561 18.9495 20.4505 18.9552 20.3711 18.9552C20.2918 18.9552 20.2861 18.9495 20.2861 18.8418Z" fill="#FAFDF4"/>
<path d="M8.38672 11.7584C8.38672 11.6649 8.39522 11.645 8.44339 11.645C8.48022 11.645 8.50005 11.6649 8.50005 11.7017C8.50005 11.7329 8.51989 11.7584 8.54255 11.7584C8.56522 11.7584 8.58505 11.7839 8.58505 11.815C8.58505 11.8604 8.56522 11.8717 8.48589 11.8717C8.38955 11.8717 8.38672 11.8689 8.38672 11.7584Z" fill="#FAFDF4"/>
<path d="M11.739 11.849C11.688 11.8405 11.6738 11.8207 11.6738 11.7555C11.6738 11.6818 11.6823 11.6733 11.7588 11.6733C11.8353 11.6733 11.8438 11.6818 11.8438 11.7555C11.8438 11.8518 11.8268 11.866 11.739 11.849Z" fill="#FAFDF4"/>
<path d="M20.4769 11.8547C20.4655 11.8434 20.457 11.7839 20.457 11.7244C20.457 11.6394 20.4684 11.6167 20.508 11.6167C20.5392 11.6167 20.5817 11.6394 20.6072 11.6677C20.6667 11.7329 20.6695 11.8434 20.6157 11.8434C20.593 11.8434 20.5562 11.849 20.5364 11.8575C20.5137 11.866 20.4882 11.8632 20.4769 11.8547Z" fill="#FAFDF4"/>
<path d="M8.38672 10.4975V10.115H8.85422C9.30189 10.115 9.32172 10.1178 9.32172 10.1717C9.32172 10.2085 9.30189 10.2283 9.26505 10.2283C9.23389 10.2283 9.20839 10.2482 9.20839 10.2708C9.20839 10.2935 9.18289 10.3133 9.15172 10.3133C9.12055 10.3133 9.08089 10.3388 9.06105 10.37C9.04122 10.4012 9.01289 10.4267 8.99872 10.4267C8.93922 10.4267 8.62189 10.5853 8.56522 10.642C8.52555 10.6817 8.50005 10.7412 8.50005 10.795C8.50005 10.8602 8.48872 10.88 8.44339 10.88C8.38955 10.88 8.38672 10.8602 8.38672 10.4975Z" fill="#FAFDF4"/>
<path d="M23.7146 10.6958C23.7146 10.6732 23.6693 10.642 23.6041 10.625C23.5135 10.6023 23.488 10.5797 23.4738 10.5145C23.4653 10.4692 23.4313 10.4097 23.3973 10.3813C23.3463 10.3332 23.284 10.3275 22.6918 10.3275H22.043V10.2227V10.115H22.9751C23.4908 10.115 23.9158 10.1235 23.9215 10.1377C23.9271 10.149 23.9271 10.2878 23.9186 10.4493L23.9073 10.7383H23.811C23.7458 10.7383 23.7146 10.7242 23.7146 10.6958Z" fill="#FAFDF4"/>
<path d="M20.457 10.2453C20.457 10.1632 20.525 10.0867 20.6015 10.0867C20.644 10.0867 20.6554 10.1065 20.6554 10.183C20.6554 10.2567 20.6412 10.2822 20.593 10.2963C20.4825 10.3247 20.457 10.3162 20.457 10.2453Z" fill="#FAFDF4"/>
<path d="M16.8301 10.0301C16.8301 9.95357 16.8386 9.94507 16.9151 9.94507C16.9916 9.94507 17.0001 9.95357 17.0001 10.0301C17.0001 10.1066 16.9916 10.1151 16.9151 10.1151C16.8386 10.1151 16.8301 10.1066 16.8301 10.0301Z" fill="#FAFDF4"/>
<path d="M15.3281 9.36431C15.3281 8.76081 15.331 8.72681 15.382 8.72681C15.4528 8.72681 15.4698 8.88547 15.4698 9.51447V10.0018H15.399H15.3281V9.36431Z" fill="#FAFDF4"/>
<path d="M13.6648 3.35466C13.6449 3.34616 13.6279 3.30649 13.6279 3.26966V3.20166H14.1663C14.6848 3.20166 14.7046 3.20449 14.7046 3.25833C14.7046 3.29233 14.6819 3.31783 14.6423 3.32633C14.5403 3.34616 13.7016 3.36883 13.6648 3.35466Z" fill="#FAFDF4"/>
<path d="M14.8269 3.32355C14.807 3.31788 14.79 3.28671 14.79 3.25555C14.79 3.21021 14.8127 3.20171 14.9402 3.19605C15.0195 3.19605 15.1074 3.19321 15.13 3.19605C15.2179 3.20455 15.3284 3.16771 15.3284 3.12805C15.3284 3.10255 15.3595 3.08838 15.4134 3.08838C15.4785 3.08838 15.4984 3.09971 15.4984 3.14505C15.4984 3.19038 15.4785 3.20171 15.4134 3.20171C15.368 3.20171 15.3284 3.21588 15.3284 3.23288C15.3284 3.30938 15.2434 3.34338 15.0535 3.34055C14.9487 3.34055 14.8439 3.33205 14.8269 3.32355Z" fill="#FAFDF4"/>
<path d="M20.3371 3.25557C20.3031 3.23857 20.2861 3.19324 20.2861 3.1309C20.2861 3.04024 20.2918 3.03174 20.3711 3.03174C20.442 3.03174 20.4561 3.04307 20.4561 3.09974C20.4561 3.1564 20.4731 3.16774 20.5695 3.18474C20.6431 3.19607 20.6828 3.2159 20.6828 3.24424C20.6828 3.2754 20.646 3.28674 20.5355 3.28674C20.4533 3.28674 20.3626 3.27257 20.3371 3.25557Z" fill="#FAFDF4"/>
<path d="M15.3281 1.67172V1.47339H15.994H16.6598V1.55556C16.6598 1.63489 16.657 1.63772 16.4416 1.66889C16.3198 1.68589 16.1328 1.72556 16.0223 1.75389C15.9146 1.78506 15.739 1.81056 15.6341 1.81056C15.5265 1.81339 15.4415 1.82472 15.4415 1.84172C15.4415 1.85872 15.416 1.87006 15.3848 1.87006C15.3338 1.87006 15.3281 1.85022 15.3281 1.67172Z" fill="#FAFDF4"/>
<path d="M13.5996 29.9909V29.1267H15.2316C16.8381 29.1267 16.8636 29.1267 16.8778 29.1834C16.8863 29.2145 16.9174 29.24 16.9458 29.24C16.9968 29.24 16.9996 29.2769 16.9996 30.0475V30.855H15.2996H13.5996V29.9909Z" fill="white"/>
<path d="M18.7275 29.9909V29.1267H21.3342H23.9409V29.9909V30.855H21.3342H18.7275V29.9909Z" fill="white"/>
<path d="M15.3279 23.9418V22.2135L15.1948 22.2107C15.1183 22.2107 14.7301 22.2107 14.3306 22.2135L13.5996 22.2192V20.4738V18.7285H16.9628C18.8129 18.7285 20.3543 18.737 20.3911 18.7455C20.4648 18.7653 20.4789 18.8135 20.4138 18.8135C20.3911 18.8135 20.3713 18.8277 20.3713 18.8418C20.3713 18.8588 20.3911 18.8702 20.4138 18.8702C20.4506 18.8702 20.4563 18.9778 20.4563 19.6635V20.4568L20.5214 20.4597C20.5554 20.4625 20.5923 20.4625 20.6064 20.4597C20.6178 20.4597 20.6263 20.4682 20.6263 20.4852C20.6263 20.4993 20.6008 20.5135 20.5696 20.5135C20.5384 20.5135 20.5129 20.5248 20.5129 20.5362C20.5129 20.5673 20.8954 20.6297 20.9521 20.6098C20.9748 20.5985 21.1193 20.5843 21.2723 20.573C21.4479 20.5617 21.5443 20.5447 21.5414 20.5248C21.5329 20.4823 21.9976 20.454 22.1024 20.4908C22.1846 20.5192 22.2186 20.5985 22.1506 20.5985C22.1251 20.5985 22.1279 20.607 22.1563 20.6268C22.1931 20.6495 22.1988 20.9697 22.2073 23.1627L22.2158 25.6702H20.5271C18.9858 25.6673 18.8356 25.6645 18.7846 25.6192C18.7308 25.5738 18.7279 25.5313 18.7279 23.9333C18.7279 22.8482 18.7393 22.2758 18.7563 22.239C18.7988 22.1653 18.7648 22.1143 18.7081 22.1625C18.6741 22.1908 18.4616 22.2022 17.8298 22.2078L16.9996 22.2163V23.9447V25.6702H16.1638H15.3279V23.9418Z" fill="white"/>
<path d="M8.40318 11.75C8.38335 11.6225 8.38618 10.8462 8.40602 10.6762C8.41452 10.6167 8.43152 10.5742 8.44285 10.5827C8.45418 10.5912 8.47118 10.5798 8.47968 10.5572C8.49385 10.5203 8.72335 10.4013 8.87068 10.356C8.90752 10.3447 8.95852 10.305 8.98685 10.2682C9.01802 10.2313 9.05768 10.2087 9.08035 10.22C9.10302 10.2285 9.12285 10.22 9.12285 10.203C9.12285 10.186 9.10585 10.169 9.08885 10.169C9.06902 10.1662 9.10302 10.1548 9.16535 10.1435C9.33535 10.1067 11.8372 10.1095 11.8485 10.1435C11.8513 10.1577 11.8542 10.5288 11.8485 10.9652C11.8428 11.6395 11.8343 11.7585 11.8003 11.7585C11.7777 11.7585 11.7578 11.7783 11.7578 11.801C11.7578 11.8378 11.5623 11.8435 10.1797 11.8463C9.30985 11.8492 8.55902 11.8548 8.51085 11.8605C8.42585 11.8662 8.42018 11.8605 8.40318 11.75Z" fill="white"/>
<path d="M22.1901 11.852L20.5949 11.8435L20.5269 11.7642L20.4561 11.6877L20.4589 10.9369C20.4589 10.5232 20.4702 10.1662 20.4816 10.1464C20.5042 10.1095 20.6431 10.1067 21.9067 10.1124C22.1447 10.1152 22.1532 10.118 22.1419 10.1804C22.1306 10.2427 22.1334 10.2427 22.3346 10.2257C22.4451 10.2172 22.7426 10.22 22.9919 10.2342C23.4821 10.2597 23.5246 10.2767 23.5586 10.4297C23.5727 10.4949 23.5982 10.5175 23.6889 10.5402C23.7541 10.5572 23.7994 10.5884 23.7994 10.611C23.7994 10.6337 23.8249 10.6535 23.8561 10.6535C23.9071 10.6535 23.9127 10.6762 23.9184 10.934C23.9241 11.0899 23.9241 11.3619 23.9184 11.5432C23.9099 11.8634 23.9071 11.8719 23.8476 11.8662C23.8136 11.8605 23.0684 11.8549 22.1901 11.852Z" fill="white"/>
<path d="M15.3279 10.0159C15.3279 9.96206 15.3421 9.91672 15.3591 9.91672C15.3903 9.91672 15.3818 9.22822 15.3393 8.65022L15.3223 8.38672H14.4609H13.5996V5.78856V3.18756L13.7611 3.19889C13.9198 3.21306 13.9226 3.21306 13.8121 3.22722C13.5996 3.25839 13.7838 3.28389 14.0586 3.26406L14.3221 3.24422L14.1238 3.22722L13.9254 3.21306L14.1804 3.20739C14.3419 3.20456 14.4496 3.21306 14.4694 3.23289C14.4949 3.25839 14.5233 3.25839 14.5884 3.23006C14.6423 3.21022 14.7216 3.20172 14.7953 3.21306C15.0843 3.25839 15.1863 3.26406 15.1863 3.23572C15.1863 3.21872 15.2146 3.20172 15.2514 3.19606C15.3138 3.18756 15.3138 3.18472 15.3308 2.47922C15.3506 1.69156 15.3591 1.60939 15.3988 1.58106C15.4526 1.54139 15.4724 1.55839 15.4639 1.63772L15.4554 1.71422L15.6538 1.70856C15.7643 1.70572 15.9088 1.68306 15.9796 1.66039C16.0504 1.63489 16.0703 1.62356 16.0278 1.63206C15.9796 1.64056 15.9541 1.63489 15.9626 1.61789C15.9711 1.60372 15.9626 1.58389 15.9456 1.57539C15.9258 1.56689 15.9371 1.56689 15.9683 1.57256C16.0646 1.59806 16.2091 1.59522 16.4046 1.56972L16.5888 1.54706L16.4471 1.52722C16.2204 1.49322 16.0306 1.49606 16.0533 1.53289C16.0646 1.55272 16.0504 1.56122 16.0221 1.55272C15.9938 1.54989 15.9654 1.52722 15.9569 1.51022C15.9484 1.48189 16.4103 1.47339 18.2009 1.47339H20.4563V2.29506C20.4563 3.04872 20.4534 3.11672 20.4081 3.11672C20.3713 3.11672 20.3684 3.12522 20.3939 3.15072C20.4364 3.19322 20.5328 3.19606 21.4989 3.19889L22.2129 3.20172V4.06589V4.93006H19.6063H16.9996V7.48006C16.9996 9.72689 16.9939 10.0301 16.9571 10.0301C16.9344 10.0301 16.9146 10.0499 16.9146 10.0726C16.9146 10.1094 16.8069 10.1151 16.1213 10.1151H15.3279V10.0159ZM16.9996 4.06022V3.18756L16.2006 3.19606C15.7586 3.19889 15.3818 3.20172 15.3648 3.20172C15.3364 3.20172 15.3279 3.39439 15.3279 4.06589V4.93006H16.1638H16.9996V4.06022Z" fill="white"/>
<path d="M18.7275 10.0528C18.7275 9.99895 18.7332 9.99612 18.7559 10.0301C18.7927 10.0839 18.7927 10.1151 18.7559 10.1151C18.7417 10.1151 18.7275 10.0868 18.7275 10.0528Z" fill="white"/>
<path d="M15.3765 1.53861C15.3651 1.52161 15.3765 1.49894 15.402 1.49044C15.4728 1.46211 15.555 1.47061 15.555 1.50461C15.555 1.52444 15.5295 1.53011 15.487 1.51878C15.4445 1.50744 15.4133 1.51594 15.4076 1.53578C15.3991 1.55844 15.3906 1.56128 15.3765 1.53861Z" fill="white"/>
<path d="M15.7412 1.51589C15.7299 1.48189 15.7497 1.47339 15.8319 1.47339L15.9367 1.47622L15.8659 1.51589C15.7752 1.56689 15.761 1.56689 15.7412 1.51589Z" fill="white"/>
</svg>
